<svg xmlns="http://www.w3.org/2000/svg" xmlns:xlink="http://www.w3.org/1999/xlink" width="500" zoomAndPan="magnify" viewBox="0 0 375 374.999991" height="500" preserveAspectRatio="xMidYMid meet" version="1.0"><defs><clipPath id="18ccfe48c7"><path d="M 38 26.441406 L 330 26.441406 L 330 348.191406 L 38 348.191406 Z M 38 26.441406 " clip-rule="nonzero"/></clipPath></defs><rect x="-37.5" width="450" fill="#ffffff" y="-37.499999" height="449.999989" fill-opacity="1"/><rect x="-37.5" width="450" fill="#ffffff" y="-37.499999" height="449.999989" fill-opacity="1"/><g clip-path="url(#18ccfe48c7)"><path fill="#efefef" d="M 273.023438 315.214844 C 208.976562 315.214844 164.992188 348.339844 134.132812 348.339844 C 103.269531 348.339844 38.453125 330.625 38.453125 188.863281 C 38.453125 47.097656 125.648438 26.285156 159.59375 26.285156 C 318.554688 26.285156 386.453125 315.214844 273.023438 315.214844 Z M 273.023438 315.214844 " fill-opacity="1" fill-rule="nonzero"/></g><path fill="#a4afc1" d="M 298.832031 122.570312 L 311.925781 109.492188 L 318.472656 116.03125 L 305.378906 129.105469 Z M 298.832031 122.570312 " fill-opacity="1" fill-rule="nonzero"/><path fill="#a4afc1" d="M 302.097656 151.996094 L 308.644531 145.460938 L 321.738281 158.535156 L 315.191406 165.074219 Z M 302.097656 151.996094 " fill-opacity="1" fill-rule="nonzero"/><path fill="#a4afc1" d="M 264.464844 114.402344 L 271.011719 107.863281 L 284.105469 120.9375 L 277.558594 127.476562 Z M 264.464844 114.402344 " fill-opacity="1" fill-rule="nonzero"/><path fill="#2fdf84" d="M 79.75 180.382812 L 153.828125 217.367188 L 183.921875 191.941406 L 116.789062 157.269531 Z M 79.75 180.382812 " fill-opacity="1" fill-rule="nonzero"/><path fill="#2fdf84" d="M 251.050781 157.269531 L 183.921875 191.941406 L 214.015625 217.367188 L 288.089844 180.382812 Z M 251.050781 157.269531 " fill-opacity="1" fill-rule="nonzero"/><path fill="#f3f3f1" d="M 214.015625 217.367188 L 183.921875 191.941406 L 153.828125 217.367188 L 107.527344 194.253906 L 107.527344 254.347656 L 183.921875 286.710938 L 260.3125 254.347656 L 260.3125 194.253906 Z M 214.015625 217.367188 " fill-opacity="1" fill-rule="nonzero"/><path fill="#00b871" d="M 100.585938 180.382812 L 128.1875 163.160156 L 116.789062 157.269531 L 79.75 180.382812 L 153.828125 217.367188 L 161.566406 210.828125 Z M 100.585938 180.382812 " fill-opacity="1" fill-rule="nonzero"/><path fill="#00b871" d="M 204.753906 191.941406 L 260.488281 163.160156 L 251.050781 157.269531 L 183.921875 191.941406 L 214.015625 217.367188 L 227.105469 210.828125 Z M 204.753906 191.941406 " fill-opacity="1" fill-rule="nonzero"/><path fill="#d5dbe1" d="M 174.660156 217.367188 L 194.335938 200.742188 L 183.921875 191.941406 L 161.566406 210.828125 Z M 174.660156 217.367188 " fill-opacity="1" fill-rule="nonzero"/><path fill="#d5dbe1" d="M 234.847656 217.367188 L 260.3125 204.652344 L 260.3125 194.253906 L 227.105469 210.828125 Z M 234.847656 217.367188 " fill-opacity="1" fill-rule="nonzero"/><path fill="#d5dbe1" d="M 128.363281 254.347656 L 128.363281 204.652344 L 107.527344 194.253906 L 107.527344 254.347656 L 183.921875 286.710938 L 194.335938 282.300781 Z M 128.363281 254.347656 " fill-opacity="1" fill-rule="nonzero"/><path fill="#000000" d="M 172.347656 136.464844 C 168.511719 136.464844 165.402344 133.359375 165.402344 129.53125 L 165.402344 87.925781 C 165.402344 84.097656 168.511719 80.992188 172.347656 80.992188 L 183.921875 80.992188 C 194.132812 80.992188 202.441406 89.285156 202.441406 99.484375 C 202.441406 109.683594 194.132812 117.976562 183.921875 117.976562 L 179.289062 117.976562 L 179.289062 129.53125 C 179.289062 133.359375 176.179688 136.464844 172.347656 136.464844 Z M 179.289062 104.105469 L 183.921875 104.105469 C 186.46875 104.105469 188.550781 102.027344 188.550781 99.484375 C 188.550781 96.941406 186.46875 94.859375 183.921875 94.859375 L 179.289062 94.859375 Z M 179.289062 104.105469 " fill-opacity="1" fill-rule="nonzero"/><path fill="#000000" d="M 144.566406 136.464844 C 140.734375 136.464844 137.621094 133.359375 137.621094 129.53125 L 137.621094 87.925781 C 137.621094 84.097656 140.734375 80.992188 144.566406 80.992188 C 148.402344 80.992188 151.511719 84.097656 151.511719 87.925781 L 151.511719 129.53125 C 151.511719 133.359375 148.402344 136.464844 144.566406 136.464844 Z M 144.566406 136.464844 " fill-opacity="1" fill-rule="nonzero"/><path fill="#000000" d="M 214.015625 224.300781 C 212.402344 224.300781 210.808594 223.738281 209.53125 222.65625 L 179.4375 197.230469 C 177.671875 195.742188 176.761719 193.457031 177.023438 191.164062 C 177.28125 188.863281 178.679688 186.847656 180.726562 185.78125 L 247.859375 151.113281 C 250.042969 149.964844 252.652344 150.085938 254.726562 151.390625 L 291.765625 174.503906 C 293.894531 175.835938 295.136719 178.203125 295.027344 180.707031 C 294.90625 183.210938 293.441406 185.46875 291.191406 186.585938 L 217.117188 223.570312 C 216.132812 224.058594 215.070312 224.300781 214.015625 224.300781 Z M 196.328125 193.335938 L 215.003906 209.121094 L 273.914062 179.699219 L 250.726562 165.238281 Z M 196.328125 193.335938 " fill-opacity="1" fill-rule="nonzero"/><path fill="#000000" d="M 183.921875 293.644531 C 182.996094 293.644531 182.078125 293.457031 181.207031 293.089844 L 104.816406 260.730469 C 102.25 259.648438 100.585938 257.132812 100.585938 254.347656 L 100.585938 194.253906 C 100.585938 190.425781 103.695312 187.316406 107.527344 187.316406 C 111.363281 187.316406 114.472656 190.425781 114.472656 194.253906 L 114.472656 249.761719 L 183.921875 279.183594 L 253.367188 249.761719 L 253.367188 194.253906 C 253.367188 190.425781 256.476562 187.316406 260.3125 187.316406 C 264.144531 187.316406 267.257812 190.425781 267.257812 194.253906 L 267.257812 254.347656 C 267.257812 257.132812 265.589844 259.648438 263.023438 260.730469 L 186.632812 293.089844 C 185.761719 293.457031 184.847656 293.644531 183.921875 293.644531 Z M 183.921875 293.644531 " fill-opacity="1" fill-rule="nonzero"/><path fill="#000000" d="M 218.644531 136.464844 C 214.808594 136.464844 211.699219 133.359375 211.699219 129.53125 L 211.699219 87.925781 C 211.699219 84.097656 214.808594 80.992188 218.644531 80.992188 C 222.476562 80.992188 225.589844 84.097656 225.589844 87.925781 L 225.589844 129.53125 C 225.589844 133.359375 222.476562 136.464844 218.644531 136.464844 Z M 218.644531 136.464844 " fill-opacity="1" fill-rule="nonzero"/><path fill="#000000" d="M 241.792969 136.464844 C 240.136719 136.464844 238.476562 135.882812 237.144531 134.691406 L 213.996094 113.886719 C 212.53125 112.566406 211.699219 110.699219 211.699219 108.730469 C 211.699219 106.761719 212.53125 104.894531 213.996094 103.570312 L 237.144531 82.769531 C 240.003906 80.207031 244.375 80.4375 246.960938 83.285156 C 249.523438 86.140625 249.292969 90.515625 246.441406 93.085938 L 229.023438 108.730469 L 246.441406 124.375 C 249.292969 126.933594 249.523438 131.316406 246.960938 134.171875 C 245.578125 135.691406 243.691406 136.464844 241.792969 136.464844 Z M 241.792969 136.464844 " fill-opacity="1" fill-rule="nonzero"/><path fill="#000000" d="M 153.828125 224.300781 C 152.769531 224.300781 151.707031 224.058594 150.726562 223.570312 L 76.648438 186.585938 C 74.398438 185.46875 72.9375 183.222656 72.816406 180.707031 C 72.695312 178.203125 73.9375 175.835938 76.074219 174.503906 L 113.113281 151.390625 C 115.1875 150.078125 117.808594 149.964844 119.984375 151.113281 L 187.113281 185.78125 C 189.171875 186.847656 190.558594 188.863281 190.820312 191.164062 C 191.078125 193.457031 190.179688 195.742188 188.402344 197.230469 L 158.308594 222.65625 C 157.03125 223.738281 155.4375 224.300781 153.828125 224.300781 Z M 93.925781 179.707031 L 152.835938 209.128906 L 171.511719 193.347656 L 117.113281 165.25 Z M 93.925781 179.707031 " fill-opacity="1" fill-rule="nonzero"/></svg>