<svg class="lucide lucide-brain-cog" xmlns="http://www.w3.org/2000/svg" width="600" height="600" viewBox="0 0 24 24" fill="none" stroke="url(#iconhub-icon-stroke-gradient)" stroke-width="2" stroke-linecap="round" stroke-linejoin="round"><defs><linearGradient id="iconhub-icon-stroke-gradient" gradientUnits="userSpaceOnUse" x1="0" y1="0" x2="24" y2="24" gradientTransform="rotate(90, 12, 12)"><stop offset="0%" stop-color="rgba(7,36,0,1)"/><stop offset="38%" stop-color="rgba(240,103,46,1)"/><stop offset="100%" stop-color="rgba(0,212,255,1)"/></linearGradient></defs><rect id="iconhub-bg-rect" x="0" y="0" width="calc(100% - 0px)" height="calc(100% - 0px)" fill="none" rx="0" stroke-width="0" stroke="none"/>
  <path d="m10.852 14.772-.383.923" id="shape-1"/>
  <path d="m10.852 9.228-.383-.923" id="shape-2" class=""/>
  <path d="m13.148 14.772.382.924" id="shape-3"/>
  <path d="m13.531 8.305-.383.923" id="shape-4"/>
  <path d="m14.772 10.852.923-.383" id="shape-5"/>
  <path d="m14.772 13.148.923.383" id="shape-6"/>
  <path d="M17.598 6.5A3 3 0 1 0 12 5a3 3 0 0 0-5.63-1.446 3 3 0 0 0-.368 1.571 4 4 0 0 0-2.525 5.771" id="shape-7" class=""/>
  <path d="M17.998 5.125a4 4 0 0 1 2.525 5.771" id="shape-8"/>
  <path d="M19.505 10.294a4 4 0 0 1-1.5 7.706" id="shape-9"/>
  <path d="M4.032 17.483A4 4 0 0 0 11.464 20c.18-.311.892-.311 1.072 0a4 4 0 0 0 7.432-2.516" id="shape-10"/>
  <path d="M4.5 10.291A4 4 0 0 0 6 18" id="shape-11"/>
  <path d="M6.002 5.125a3 3 0 0 0 .4 1.375" id="shape-12"/>
  <path d="m9.228 10.852-.923-.383" id="shape-13"/>
  <path d="m9.228 13.148-.923.383" id="shape-14"/>
  <circle cx="12" cy="12" r="3" id="shape-15" class=""/>
</svg>